<?xml version="1.0" standalone="no"?>
<!DOCTYPE svg PUBLIC "-//W3C//DTD SVG 20010904//EN"
 "http://www.w3.org/TR/2001/REC-SVG-20010904/DTD/svg10.dtd">
<svg version="1.0" xmlns="http://www.w3.org/2000/svg"
 width="3465.000000pt" height="3465.000000pt" viewBox="0 0 3465.000000 3465.000000"
 preserveAspectRatio="xMidYMid meet">
<metadata>
Created by potrace 1.14, written by Peter Selinger 2001-2017
</metadata>
<g transform="translate(0.000000,3465.000000) scale(0.100000,-0.100000)"
fill="#000000" stroke="none">
<path d="M21540 30565 c-36 -7 -83 -17 -105 -23 -22 -6 -92 -20 -155 -32 -63
-11 -143 -27 -177 -35 -34 -8 -73 -15 -87 -15 -14 0 -45 -6 -68 -13 -24 -8
-77 -24 -117 -37 -164 -51 -253 -113 -521 -365 -260 -243 -350 -317 -430 -358
-8 -4 -33 -18 -55 -30 -102 -60 -161 -89 -300 -149 -82 -36 -181 -78 -220 -92
-38 -15 -86 -33 -105 -41 -19 -8 -65 -25 -102 -39 -205 -78 -373 -144 -415
-162 -18 -8 -48 -20 -65 -28 -18 -8 -58 -25 -88 -36 -56 -23 -88 -36 -150 -62
-19 -9 -60 -26 -90 -38 -30 -13 -75 -32 -100 -43 -25 -10 -54 -22 -65 -27 -26
-10 -117 -48 -175 -73 -25 -10 -54 -23 -65 -27 -11 -5 -81 -34 -155 -65 -74
-31 -163 -70 -198 -86 -34 -16 -65 -29 -68 -29 -3 0 -26 -9 -52 -21 -26 -11
-56 -24 -67 -29 -11 -4 -42 -18 -70 -30 -27 -12 -63 -27 -80 -34 -16 -7 -46
-20 -65 -29 -79 -36 -296 -127 -303 -127 -4 0 -35 -13 -69 -29 -35 -15 -103
-45 -153 -66 -49 -20 -103 -43 -120 -50 -72 -33 -364 -155 -369 -155 -3 0 -34
-13 -68 -28 -35 -16 -88 -39 -118 -52 -30 -12 -68 -29 -85 -36 -26 -11 -82
-35 -150 -64 -11 -5 -65 -27 -120 -50 -55 -23 -109 -45 -120 -50 -68 -29 -124
-53 -150 -64 -16 -7 -55 -24 -85 -36 -30 -13 -83 -36 -118 -52 -34 -15 -65
-28 -68 -28 -11 0 -306 -126 -366 -157 -14 -7 -31 -13 -36 -13 -6 0 -43 -15
-84 -33 -40 -19 -93 -42 -118 -51 -25 -10 -58 -24 -75 -31 -16 -8 -75 -33
-130 -55 -55 -23 -104 -46 -109 -51 -6 -5 -16 -9 -24 -9 -8 0 -28 -6 -45 -14
-18 -8 -108 -46 -202 -86 -93 -39 -183 -78 -200 -85 -16 -8 -91 -39 -165 -70
-74 -31 -144 -60 -155 -65 -11 -5 -81 -34 -155 -65 -138 -58 -175 -74 -232
-99 -18 -8 -94 -40 -168 -71 -74 -31 -147 -62 -162 -70 -14 -8 -31 -15 -37
-15 -6 0 -40 -13 -74 -30 -35 -16 -67 -30 -71 -30 -4 0 -41 -16 -82 -35 -41
-19 -77 -35 -80 -35 -3 0 -20 -6 -37 -14 -18 -8 -93 -40 -167 -71 -147 -61
-189 -79 -235 -100 -16 -7 -55 -23 -85 -35 -30 -12 -70 -28 -87 -36 -18 -8
-49 -21 -68 -29 -19 -8 -50 -21 -68 -29 -57 -26 -100 -44 -167 -71 -36 -14
-74 -30 -85 -35 -11 -5 -42 -18 -70 -30 -27 -12 -63 -27 -80 -35 -16 -7 -55
-23 -85 -35 -59 -23 -78 -31 -182 -79 -37 -17 -70 -31 -73 -31 -4 0 -66 -25
-138 -56 -136 -57 -141 -59 -217 -92 -25 -10 -85 -36 -135 -57 -108 -45 -145
-60 -188 -79 -17 -8 -93 -40 -167 -71 -74 -31 -144 -60 -155 -65 -11 -4 -40
-17 -65 -27 -25 -11 -70 -30 -100 -43 -30 -12 -70 -29 -87 -37 -18 -7 -49 -20
-68 -28 -19 -8 -50 -21 -68 -29 -113 -51 -382 -156 -397 -156 -5 0 -24 -6 -42
-14 -18 -8 -58 -24 -88 -36 -30 -12 -68 -27 -85 -35 -16 -8 -52 -24 -80 -36
-152 -68 -296 -194 -349 -305 -16 -32 -32 -66 -36 -75 -5 -9 -27 -61 -50 -115
-22 -54 -47 -112 -55 -129 -7 -16 -20 -48 -28 -70 -22 -58 -91 -236 -143 -370
-15 -38 -33 -88 -40 -110 -13 -41 -22 -65 -88 -235 -21 -52 -42 -109 -47 -127
-5 -18 -16 -45 -24 -60 -8 -15 -15 -35 -15 -44 0 -8 -4 -19 -8 -25 -4 -5 -18
-36 -31 -69 -25 -65 -46 -118 -71 -180 -27 -66 -46 -115 -85 -215 -20 -52 -42
-108 -50 -125 -7 -16 -30 -73 -50 -125 -20 -52 -42 -108 -50 -125 -7 -16 -30
-73 -50 -125 -40 -103 -60 -153 -85 -215 -18 -43 -43 -107 -68 -170 -8 -22
-24 -59 -34 -82 -10 -23 -18 -46 -18 -52 0 -5 -7 -22 -15 -38 -8 -15 -30 -71
-50 -123 -20 -52 -49 -126 -65 -165 -16 -38 -38 -97 -51 -130 -12 -33 -28 -73
-34 -90 -7 -16 -20 -48 -28 -70 -9 -22 -32 -83 -52 -135 -20 -52 -43 -111 -50
-130 -20 -52 -80 -207 -121 -312 -20 -51 -42 -107 -50 -125 -8 -17 -14 -34
-14 -38 0 -4 -6 -21 -14 -38 -13 -30 -33 -81 -122 -309 -20 -51 -42 -106 -49
-123 -7 -16 -20 -49 -29 -72 -19 -52 -44 -114 -66 -168 -9 -22 -24 -60 -34
-85 -10 -25 -24 -58 -31 -75 -7 -16 -23 -52 -35 -80 -12 -27 -27 -63 -35 -80
-70 -153 -141 -344 -165 -449 l-21 -89 1 -5991 1 -5990 20 -41 c13 -25 35 -49
61 -64 l41 -23 920 1 919 1 48 26 c60 32 82 79 106 223 18 111 17 221 -6 541
-7 109 -10 1417 -8 4380 l3 4225 50 12 c28 7 86 20 130 28 100 19 180 38 270
65 110 34 106 35 127 -45 17 -61 19 -109 19 -388 0 -175 -3 -322 -6 -327 -4
-6 -23 -10 -43 -10 -54 -1 -202 -34 -240 -54 -46 -24 -68 -48 -92 -100 l-20
-45 0 -4206 0 -4205 21 -43 c24 -46 46 -66 96 -84 78 -28 153 43 153 147 0 56
24 137 48 165 52 60 127 82 332 95 85 6 169 13 185 15 17 3 100 12 185 20 161
15 256 26 450 50 222 28 323 38 745 75 66 6 188 17 270 25 205 20 367 35 510
45 66 5 174 16 240 24 66 9 183 22 260 31 77 9 174 21 215 27 41 5 127 16 190
23 63 7 156 18 205 24 395 49 724 74 900 69 l130 -3 5 -380 c5 -376 5 -380 28
-412 25 -36 70 -49 122 -38 36 8 63 34 93 90 21 38 22 52 23 332 0 161 3 296
7 299 6 7 99 -37 202 -94 166 -92 272 -188 298 -269 9 -26 19 -93 23 -148 10
-147 44 -203 128 -212 59 -7 88 12 115 73 12 26 21 51 21 57 0 6 10 44 22 85
31 102 68 140 168 169 150 44 246 54 520 51 l254 -3 1 -170 c0 -164 1 -171 25
-207 29 -44 75 -63 128 -53 75 14 104 65 112 192 3 51 9 95 13 99 13 14 165
-66 289 -153 27 -18 87 -56 135 -83 80 -46 92 -50 153 -50 56 0 70 4 87 23 51
55 42 130 -23 205 -57 65 -123 111 -279 192 -216 113 -300 180 -346 276 l-24
49 0 517 c0 284 3 519 6 523 17 17 262 -150 631 -431 86 -65 179 -134 205
-152 256 -174 320 -231 364 -325 37 -80 45 -178 29 -352 -28 -315 -24 -406 23
-484 50 -84 155 -68 217 34 28 47 45 192 40 355 -2 80 -4 210 -4 290 l-1 145
125 0 125 0 5 -395 c5 -385 6 -396 27 -430 28 -46 79 -66 127 -50 42 14 69 43
98 105 22 49 23 57 21 338 -1 195 2 287 9 287 11 0 124 -55 143 -70 6 -4 46
-26 90 -50 168 -90 311 -196 378 -282 35 -44 77 -147 77 -189 0 -32 42 -101
74 -120 18 -11 50 -19 74 -19 70 0 109 29 137 104 14 37 15 374 13 3426 l-3
3385 -23 47 c-31 64 -117 155 -232 247 -124 98 -314 255 -337 279 -10 10 -52
45 -93 78 -41 32 -81 65 -89 72 -24 23 -155 105 -216 136 -120 60 -147 66
-350 75 -188 9 -242 18 -315 56 -78 40 -336 220 -465 323 -5 4 -120 93 -255
197 -135 104 -299 232 -365 285 -185 147 -224 171 -340 213 -80 29 -295 31
-430 4 -169 -34 -230 -46 -305 -64 -113 -26 -384 -25 -465 2 -33 10 -67 25
-76 32 -8 7 -20 13 -26 13 -17 0 -194 139 -296 234 -279 257 -389 302 -682
277 -77 -7 -171 -18 -210 -26 -38 -8 -92 -19 -120 -24 -27 -5 -111 -21 -185
-35 -228 -45 -282 -55 -370 -66 -221 -28 -370 -48 -550 -75 -99 -15 -198 -29
-360 -50 -96 -13 -178 -24 -350 -50 -94 -14 -161 -24 -355 -50 -118 -17 -212
-31 -315 -50 -419 -75 -734 -118 -825 -113 l-60 3 0 1610 c0 1762 -4 1614 52
1720 46 86 202 249 338 355 39 30 72 57 75 60 3 3 66 51 140 107 74 55 153
115 174 134 34 29 149 129 306 266 19 17 73 64 120 105 47 40 99 85 115 100
17 14 68 59 115 100 47 40 99 85 115 99 17 15 104 91 195 169 91 78 194 167
229 198 34 31 80 70 101 86 21 17 147 126 280 241 339 293 695 601 764 660 33
28 64 55 70 60 6 6 76 66 156 135 80 68 159 136 175 151 50 46 198 173 266
229 35 29 95 80 133 114 38 34 74 66 80 71 6 6 43 37 81 70 39 32 77 66 86 75
31 29 153 135 188 163 20 16 54 45 76 65 67 61 127 114 189 167 33 28 64 55
70 60 12 11 170 149 221 194 233 202 582 507 590 517 6 6 42 37 80 69 39 32
88 74 110 94 74 67 200 177 236 206 19 17 125 109 234 205 109 96 236 207 281
246 45 38 113 97 150 131 174 153 245 215 353 307 64 54 118 101 121 105 3 4
66 59 140 122 74 64 142 122 150 130 8 8 65 57 125 109 61 51 121 104 135 116
14 13 102 89 195 169 94 81 184 159 200 174 17 14 68 59 115 99 97 85 107 94
215 188 44 38 96 82 115 98 19 16 64 55 100 86 83 73 493 428 630 545 58 49
123 106 145 126 22 20 56 50 75 65 19 16 71 60 115 98 43 38 91 80 105 92 52
44 205 179 210 184 3 3 51 44 106 92 56 48 108 93 115 100 8 8 48 42 89 77 41
35 110 95 152 133 42 38 94 83 115 99 21 17 56 47 78 68 30 28 681 597 936
818 18 15 94 82 169 148 75 66 150 131 166 145 62 54 592 516 653 569 88 77
114 121 114 191 0 94 -37 147 -261 373 -86 87 -181 174 -209 193 -94 63 -174
75 -313 49z m132 -292 c68 -26 218 -138 241 -179 18 -32 -74 -169 -169 -250
-32 -27 -67 -58 -80 -69 -12 -11 -37 -33 -55 -49 -18 -17 -101 -91 -184 -165
-168 -152 -239 -212 -305 -257 -61 -42 -181 -106 -187 -100 -9 8 -3 353 7 430
5 39 12 139 15 221 7 151 21 219 54 259 98 116 516 217 663 159z m-984 -384
c4 -50 -5 -153 -43 -499 -8 -74 -15 -166 -15 -205 0 -82 -7 -115 -25 -115 -25
0 -266 129 -367 197 -145 96 -168 115 -168 136 0 18 114 155 213 255 72 74
246 216 287 236 8 4 33 18 55 31 22 13 45 22 50 21 6 -1 12 -27 13 -57z m-683
-788 c76 -29 225 -112 357 -197 37 -24 70 -44 74 -44 4 0 18 -10 31 -22 17
-16 23 -33 23 -64 0 -40 -3 -44 -87 -115 -110 -92 -235 -200 -248 -215 -15
-17 -184 -146 -237 -181 -25 -17 -57 -34 -70 -38 -12 -4 -29 -13 -37 -19 -19
-15 -16 5 39 339 20 120 40 263 55 395 20 168 23 180 38 180 6 0 35 -9 62 -19z
m-745 -17 c0 -24 -51 -92 -128 -170 -73 -74 -92 -90 -362 -325 -91 -79 -183
-160 -205 -180 -22 -20 -52 -47 -66 -60 -234 -212 -332 -301 -339 -309 -3 -3
-59 -54 -125 -114 -128 -117 -147 -134 -325 -296 -64 -58 -158 -143 -210 -190
-142 -128 -214 -195 -330 -305 -213 -202 -309 -279 -405 -323 -27 -13 -58 -27
-67 -32 -62 -34 -278 -90 -498 -130 -36 -7 -96 -18 -135 -25 -38 -7 -99 -19
-135 -25 -36 -6 -87 -18 -115 -25 -27 -7 -86 -20 -130 -30 -135 -29 -248 -55
-290 -67 -22 -6 -69 -17 -105 -25 -215 -48 -278 -63 -340 -78 -61 -15 -139
-34 -275 -65 -49 -12 -115 -27 -145 -35 -30 -7 -80 -19 -110 -25 -59 -13 -143
-32 -242 -54 -35 -8 -97 -22 -138 -31 -41 -8 -88 -20 -105 -24 -16 -5 -75 -19
-130 -31 -55 -12 -123 -28 -151 -36 -28 -8 -60 -14 -71 -14 -11 0 -39 -6 -64
-14 -24 -8 -87 -24 -139 -35 -52 -12 -120 -28 -150 -35 -30 -8 -86 -21 -125
-29 -139 -31 -251 -58 -301 -72 -28 -8 -58 -15 -66 -15 -9 0 -38 -6 -64 -14
-27 -8 -92 -24 -144 -36 -98 -21 -171 -39 -250 -61 -25 -6 -72 -18 -105 -25
-33 -7 -87 -20 -120 -28 -98 -23 -147 -35 -195 -46 -25 -7 -67 -16 -95 -21
-27 -5 -61 -14 -75 -20 -14 -5 -48 -13 -75 -18 -46 -8 -226 -52 -350 -85 -64
-17 -126 -33 -195 -51 -30 -7 -84 -21 -120 -30 -36 -9 -90 -22 -120 -30 -30
-7 -75 -18 -100 -24 -210 -50 -467 -101 -515 -101 -15 0 -14 3 6 23 45 43 174
115 324 182 17 7 51 22 76 34 25 12 51 21 58 21 6 0 19 4 29 10 9 5 35 16 57
24 39 13 235 84 305 111 19 7 62 23 95 36 33 12 69 25 80 30 11 4 49 20 85 34
36 14 74 30 85 35 11 5 45 19 75 31 30 11 69 27 85 34 17 8 55 23 85 35 30 12
70 28 88 36 56 25 93 41 232 99 160 67 194 82 238 101 17 8 48 21 67 29 19 8
50 21 68 29 17 8 109 47 202 86 94 40 190 81 215 92 69 30 78 34 185 78 55 23
109 45 120 50 11 5 61 25 110 45 50 20 104 43 120 50 17 8 91 39 165 70 143
59 150 62 220 93 25 11 70 29 100 41 30 12 70 29 88 37 39 17 81 35 147 62 78
31 296 122 335 139 37 17 44 20 185 78 133 56 146 61 196 84 25 12 53 21 61
21 8 0 18 4 23 9 6 5 39 21 75 36 36 14 81 33 100 41 19 9 49 21 65 28 62 27
111 48 140 61 17 8 91 39 165 70 74 30 150 62 168 70 18 8 47 21 65 28 17 7
48 21 67 30 19 9 76 32 125 52 50 20 104 43 120 50 37 16 53 24 280 120 99 42
189 80 200 85 11 5 81 34 155 65 74 31 149 62 165 70 17 7 46 20 65 29 19 8
96 41 170 71 137 57 181 76 235 100 17 7 71 30 120 50 50 21 104 43 120 51 33
14 118 51 150 64 11 5 36 15 55 24 19 8 80 33 135 56 55 23 114 47 130 55 17
7 71 30 120 50 50 20 99 40 110 45 11 5 65 27 120 50 55 23 109 45 120 50 11
5 65 27 120 50 55 23 114 47 130 55 17 7 64 27 105 44 118 47 273 111 295 121
96 43 213 89 228 90 9 0 17 -7 17 -16z m360 -167 c0 -51 -20 -196 -45 -332
-42 -220 -84 -493 -87 -570 l-3 -50 -484 0 c-358 0 -485 3 -488 12 -4 12 207
231 317 329 36 31 106 96 156 143 212 200 299 280 368 335 26 21 55 46 64 56
44 44 184 140 195 133 4 -2 7 -28 7 -56z m-415 -1236 c3 -6 -23 -40 -57 -77
-104 -111 -179 -179 -413 -374 -132 -109 -305 -261 -444 -389 -83 -76 -241
-178 -254 -164 -17 16 -2 157 38 348 8 39 19 97 26 130 18 94 36 185 47 240 6
28 18 100 27 160 9 61 19 116 21 123 3 9 112 12 503 12 301 0 502 -4 506 -9z
m-1345 -428 c-22 -97 -37 -172 -59 -288 -7 -33 -18 -91 -26 -130 -8 -38 -24
-124 -36 -190 -26 -150 -46 -236 -57 -247 -5 -5 -112 -4 -238 2 -126 6 -311
15 -411 19 -100 4 -185 10 -189 14 -28 28 150 232 331 382 110 91 219 187 335
294 178 165 267 232 335 256 40 14 41 7 15 -112z m-1565 -873 c8 -13 0 -26
-55 -91 -143 -171 -430 -451 -630 -615 -36 -30 -345 -292 -435 -369 -76 -65
-93 -80 -185 -163 -46 -42 -107 -97 -135 -122 -27 -25 -75 -68 -105 -96 -30
-28 -67 -62 -81 -75 -15 -13 -75 -69 -135 -124 -59 -55 -138 -127 -174 -160
-36 -33 -70 -64 -76 -70 -22 -21 -214 -197 -334 -306 -69 -62 -130 -118 -136
-124 -36 -33 -111 -101 -194 -175 -52 -46 -120 -107 -150 -135 -30 -29 -104
-96 -165 -150 -60 -55 -115 -104 -121 -109 -26 -25 -109 -100 -254 -231 -175
-158 -368 -334 -450 -410 -30 -28 -136 -125 -235 -215 -99 -90 -185 -169 -191
-175 -30 -27 -115 -105 -279 -255 -99 -91 -182 -167 -185 -170 -3 -3 -84 -77
-180 -165 -96 -88 -177 -162 -180 -165 -7 -8 -225 -206 -285 -259 -28 -24 -75
-67 -105 -95 -30 -28 -95 -87 -145 -131 -49 -44 -95 -84 -101 -90 -116 -104
-305 -280 -484 -451 -140 -134 -174 -164 -265 -230 -38 -28 -101 -68 -139 -88
-79 -41 -78 -42 -101 44 -9 30 -22 78 -30 106 -8 28 -15 58 -15 66 0 9 -6 38
-14 64 -8 27 -24 87 -36 134 -11 47 -26 103 -32 125 -6 22 -16 65 -24 95 -30
130 -42 178 -53 220 -20 74 -42 164 -91 375 -12 50 -27 115 -35 145 -7 30 -23
100 -35 155 -12 55 -28 123 -35 150 -14 54 -29 113 -52 215 -33 142 -45 198
-57 260 -7 36 -18 83 -24 105 -14 52 -32 135 -73 335 -6 30 -17 80 -24 110
-17 70 -34 148 -50 230 -16 84 -33 161 -50 230 -7 30 -19 84 -25 120 -14 75
-33 171 -49 250 -7 30 -19 87 -26 125 -8 39 -21 102 -29 140 -9 39 -20 95 -25
125 -15 89 -30 170 -48 248 -14 64 -15 75 -2 83 13 9 60 23 179 55 30 9 78 22
105 29 28 8 61 17 75 20 14 3 49 12 78 20 105 30 158 44 202 55 83 21 154 38
220 53 36 9 101 25 145 37 44 12 107 28 140 35 33 8 83 19 110 25 28 6 75 18
105 25 104 26 340 81 430 100 36 8 85 19 110 25 25 7 74 18 110 25 83 18 150
33 220 50 67 16 144 33 230 50 36 7 108 23 160 35 52 12 116 26 141 30 25 5
64 13 85 18 38 10 130 31 299 67 44 9 116 25 160 35 44 10 116 25 160 35 44 9
105 23 135 30 30 7 87 20 125 28 201 44 275 60 325 72 30 7 87 20 125 28 39 9
108 25 155 36 112 25 343 78 450 103 47 10 110 25 140 33 61 15 122 29 220 50
69 15 184 42 320 76 44 10 106 24 220 49 30 6 80 18 110 25 30 8 96 23 145 35
130 30 212 49 275 65 30 7 100 23 155 35 55 12 123 28 150 35 28 8 70 19 95
26 25 6 70 17 100 25 30 7 84 20 120 29 36 9 90 23 120 30 30 7 91 23 135 34
44 12 112 28 150 35 39 8 95 19 125 25 213 42 255 47 265 31z m550 -231 c110
-6 280 -13 377 -17 97 -4 180 -10 184 -14 18 -19 -156 -197 -350 -358 -43 -36
-86 -72 -95 -81 -32 -31 -225 -196 -294 -252 -79 -63 -186 -129 -199 -121 -12
8 -9 110 6 204 37 223 62 395 77 530 5 52 12 101 14 108 5 15 23 15 280 1z
m-590 -261 c7 -28 -15 -217 -50 -423 -8 -49 -22 -131 -30 -181 -8 -51 -15
-110 -15 -132 0 -55 -13 -62 -90 -45 -93 20 -220 52 -255 64 -38 13 -119 37
-167 49 -52 14 -108 42 -108 54 0 18 68 95 205 231 152 152 158 157 295 261
133 100 193 143 202 144 4 0 10 -10 13 -22z m-790 -884 c71 -15 147 -36 220
-59 22 -7 74 -23 115 -35 88 -26 140 -49 140 -63 0 -34 -198 -237 -340 -348
-108 -85 -215 -159 -230 -159 -7 0 -10 117 -10 340 0 389 -12 351 105 324z
m-375 -449 c0 -189 -4 -286 -11 -290 -5 -4 -42 0 -82 9 -142 32 -214 47 -311
65 -54 11 -103 24 -108 29 -16 16 66 127 171 232 120 119 308 256 334 243 4
-2 7 -132 7 -288z m-555 -431 c33 -8 90 -21 127 -29 37 -8 77 -19 90 -24 13
-4 46 -11 73 -15 62 -9 126 -26 142 -39 18 -13 -8 -46 -136 -176 -104 -106
-242 -220 -362 -302 -55 -37 -59 -38 -69 -20 -14 28 -14 613 1 628 8 8 21 8
43 1 17 -5 58 -16 91 -24z m-411 -166 c8 -30 8 -562 0 -582 -4 -10 -18 -16
-38 -16 -35 0 -179 23 -276 45 -36 8 -88 19 -117 25 -29 5 -68 16 -88 24 l-37
16 34 47 c49 70 192 217 288 297 85 71 209 164 221 165 4 1 9 -9 13 -21z
m-5874 -380 c0 -28 -4 -79 -10 -112 -5 -34 -14 -119 -19 -191 -13 -172 -28
-324 -46 -465 -14 -115 -27 -231 -45 -410 -5 -52 -16 -151 -25 -220 -34 -291
-70 -629 -85 -805 -5 -60 -14 -159 -20 -220 -6 -60 -17 -180 -25 -265 -8 -85
-19 -202 -25 -260 -6 -58 -15 -168 -20 -245 -12 -171 -36 -308 -62 -351 -11
-18 -40 -47 -65 -63 -44 -29 -62 -36 -168 -66 -91 -25 -500 -153 -530 -165
-11 -5 -31 -11 -45 -15 -14 -3 -49 -12 -77 -21 -234 -66 -353 -88 -353 -66 0
4 12 39 26 77 14 39 31 88 39 110 7 22 30 85 50 140 20 55 40 111 45 125 5 14
27 72 50 130 23 58 46 119 51 137 5 18 14 35 19 38 6 4 10 13 10 21 0 8 8 34
18 57 10 23 26 62 36 87 10 25 24 59 31 75 24 59 110 270 142 350 8 22 21 54
29 70 7 17 22 55 34 85 11 30 25 64 30 75 5 11 27 65 50 120 23 55 45 109 50
120 17 39 72 171 96 235 14 36 32 79 39 95 7 17 21 50 31 75 10 25 25 63 34
85 31 76 65 163 135 345 7 19 30 78 50 130 20 52 46 120 58 150 12 30 25 59
29 65 4 5 8 16 8 25 1 8 9 33 20 55 11 22 19 45 20 52 0 6 6 24 14 40 8 15 22
48 32 73 10 25 25 63 34 85 9 22 24 58 32 80 33 84 52 131 70 172 10 23 18 46
18 52 0 6 6 25 14 43 8 18 24 58 36 88 42 109 111 228 133 229 4 1 7 -22 7
-51z m5355 -403 c222 -35 369 -99 323 -140 -235 -209 -368 -316 -469 -376 -47
-27 -49 -27 -59 -9 -11 21 -14 522 -3 533 11 12 104 8 208 -8z m-517 -408 c2
-238 1 -267 -13 -267 -20 0 -109 27 -152 46 -17 8 -36 14 -41 14 -13 0 -172
70 -189 83 -7 5 -13 18 -13 28 0 39 364 376 395 366 6 -2 11 -101 13 -270z
m-4287 17 c7 -9 19 -48 26 -87 21 -120 40 -210 51 -252 6 -22 20 -80 32 -130
12 -49 33 -135 47 -190 14 -55 29 -116 33 -135 13 -59 40 -162 55 -214 8 -26
15 -57 15 -68 0 -11 4 -27 10 -37 5 -10 16 -47 24 -82 8 -35 22 -93 31 -129 9
-36 22 -90 29 -120 8 -30 19 -75 25 -100 34 -124 42 -159 50 -200 17 -85 42
-194 47 -201 4 -7 16 -70 49 -244 7 -38 17 -92 23 -120 28 -139 59 -349 72
-485 40 -406 45 -581 30 -1000 -7 -184 -15 -473 -19 -642 -3 -168 -9 -310 -14
-314 -4 -4 -31 0 -61 9 -29 9 -60 17 -68 17 -9 0 -38 6 -64 14 -27 8 -80 22
-117 31 -39 10 -71 24 -76 34 -5 9 -11 253 -14 541 -8 1003 -50 1833 -142
2790 -24 250 -35 375 -50 540 -29 323 -37 398 -51 492 -21 142 -18 298 6 298
4 0 13 -7 21 -16z m-313 -104 c6 -181 44 -746 61 -920 6 -58 18 -175 27 -260
8 -85 20 -191 26 -235 5 -44 16 -138 23 -210 8 -71 18 -173 24 -225 53 -462
67 -624 101 -1165 5 -82 9 -433 9 -780 1 -612 0 -631 -20 -675 -44 -99 -149
-146 -429 -195 -52 -9 -105 -18 -117 -21 -12 -2 -24 -1 -26 4 -3 4 -11 326
-18 715 -13 747 -5 1196 26 1522 33 348 38 396 50 515 15 143 29 265 50 430
19 153 34 287 50 445 7 72 18 168 23 215 32 269 72 740 72 841 0 59 13 81 45
77 18 -3 20 -11 23 -78z m4138 -309 c115 -31 288 -91 303 -106 20 -20 3 -50
-80 -139 -102 -110 -292 -262 -311 -249 -10 5 -11 497 -1 506 9 9 7 9 89 -12z
m-371 -361 l0 -275 -70 0 c-142 1 -415 72 -415 108 0 4 83 92 184 195 101 103
196 202 211 220 22 27 34 32 59 30 l31 -3 0 -275z m-625 -430 c19 -5 73 -17
120 -26 47 -8 117 -22 156 -29 39 -7 88 -20 108 -29 l37 -15 -17 -33 c-47 -91
-208 -258 -326 -339 -54 -37 -186 -109 -199 -109 -13 0 -16 39 -7 91 12 72 36
261 49 379 15 134 11 129 79 110z m-377 -224 c3 -8 1 -72 -4 -143 -5 -70 -13
-183 -18 -250 -4 -68 -10 -126 -14 -129 -3 -4 -42 7 -85 25 -43 17 -83 31 -88
31 -5 0 -21 6 -36 14 -15 8 -42 17 -60 21 -18 4 -45 16 -60 26 l-27 20 17 37
c52 112 171 238 316 336 45 30 52 31 59 12z m-511 -625 c31 -11 100 -40 153
-65 53 -25 99 -46 103 -46 11 0 42 -33 42 -45 0 -20 -196 -220 -268 -274 -54
-41 -154 -101 -167 -101 -10 0 -13 57 -5 125 30 276 56 425 74 425 6 0 36 -9
68 -19z m-394 -276 c-12 -73 -37 -257 -48 -355 -6 -47 -12 -91 -15 -97 -6 -18
-48 -16 -188 8 -155 26 -227 47 -227 64 0 8 15 42 33 76 60 117 282 324 407
380 34 15 35 15 41 -5 3 -12 1 -43 -3 -71z m-503 -651 c103 -20 195 -45 201
-55 17 -27 -129 -191 -220 -247 -102 -63 -116 -68 -126 -52 -11 17 -14 353 -3
363 11 11 62 8 148 -9z m-1960 -213 l0 -94 -55 -17 c-30 -10 -75 -22 -100 -29
-25 -6 -67 -18 -95 -27 -27 -8 -72 -21 -100 -29 -27 -7 -66 -19 -85 -26 -19
-6 -51 -17 -70 -24 -19 -7 -69 -22 -110 -35 -41 -13 -91 -28 -110 -35 -19 -7
-60 -19 -90 -28 -30 -9 -84 -25 -120 -35 -97 -29 -174 -49 -280 -72 -52 -11
-114 -25 -138 -30 -53 -12 -102 -13 -102 -1 0 22 42 100 73 136 31 36 70 61
147 94 38 16 148 51 161 51 6 0 25 6 42 14 18 8 48 19 67 25 34 9 66 20 140
46 19 7 89 30 155 50 66 20 131 42 145 47 14 6 41 14 60 19 19 4 69 17 110 29
109 30 301 69 330 67 25 -2 25 -3 25 -96z m3 -1033 c2 -590 1 -627 -15 -632
-10 -3 -56 -12 -103 -21 -118 -23 -150 -31 -430 -110 -25 -7 -56 -17 -70 -23
-14 -6 -61 -20 -105 -32 -44 -12 -98 -28 -120 -35 -96 -31 -270 -77 -375 -98
-247 -50 -334 -58 -344 -31 -9 23 -7 1157 2 1170 8 12 62 31 182 64 41 12 99
27 128 35 28 8 76 22 105 30 131 36 206 57 254 71 65 18 135 37 233 64 140 39
175 49 380 113 167 52 222 66 250 64 l25 -2 3 -627z m867 -720 c3 -13 4 -297
3 -632 l-3 -609 -75 -17 c-41 -9 -111 -22 -155 -29 -109 -16 -240 -38 -300
-50 -27 -5 -53 -6 -58 -2 -4 4 -6 281 -5 616 l3 608 55 17 c30 10 75 23 100
29 25 6 70 19 100 27 81 22 271 62 302 63 21 1 29 -5 33 -21z m355 2 c8 -4 35
-11 59 -15 100 -17 209 -84 237 -148 18 -39 19 -78 19 -653 0 -337 -4 -616 -8
-620 -11 -11 -128 22 -205 58 -78 37 -135 86 -165 142 -22 41 -22 44 -22 631
0 325 3 598 7 608 8 17 39 16 78 -3z m-1226 -189 c3 -5 6 -270 6 -590 1 -554
0 -582 -19 -618 -24 -49 -45 -66 -106 -92 -52 -21 -229 -61 -273 -61 -14 0
-48 -6 -76 -14 -28 -8 -96 -24 -151 -36 -55 -12 -122 -28 -150 -35 -302 -80
-632 -145 -738 -145 -40 0 -47 3 -52 23 -3 12 -4 265 -3 562 3 526 4 541 24
572 23 36 54 62 99 85 36 19 185 58 219 58 13 0 46 6 72 14 27 8 110 31 184
51 74 20 153 42 175 49 205 66 438 127 575 152 47 8 105 19 130 23 63 12 78
12 84 2z m1224 -1447 c85 -24 136 -51 191 -100 86 -77 124 -197 119 -374 l-3
-105 -75 -6 c-41 -3 -124 -12 -184 -18 -79 -9 -112 -9 -120 -1 -7 7 -12 100
-14 273 -3 267 1 347 20 347 5 0 35 -7 66 -16z m-1224 -123 c3 -5 6 -268 6
-585 l1 -577 -23 -41 c-15 -28 -38 -49 -68 -64 -59 -30 -143 -54 -189 -54 -37
0 -167 -21 -281 -45 -36 -8 -85 -17 -110 -20 -25 -4 -72 -12 -105 -20 -33 -7
-89 -19 -125 -25 -36 -7 -99 -18 -140 -26 -41 -8 -111 -20 -155 -28 -44 -8
-129 -24 -190 -36 -178 -35 -171 -35 -178 -8 -9 33 -8 1181 1 1193 8 12 110
45 139 45 11 0 43 6 69 14 27 8 90 24 139 36 50 12 105 26 124 32 19 6 60 16
90 24 31 7 83 19 116 28 33 8 83 20 110 26 28 6 75 18 105 25 158 39 286 64
505 99 108 17 152 19 159 7z m5574 -550 c1 -212 -1 -388 -6 -393 -4 -4 -52
-10 -107 -13 -159 -10 -393 -40 -585 -77 -30 -5 -82 -14 -115 -19 -33 -5 -89
-16 -125 -23 -36 -8 -110 -22 -165 -31 -55 -10 -122 -22 -150 -27 -27 -5 -95
-16 -150 -24 -145 -21 -269 -40 -355 -54 -41 -6 -118 -18 -170 -26 -52 -8
-133 -22 -180 -29 -47 -8 -105 -17 -130 -20 -25 -3 -83 -12 -130 -20 -129 -21
-218 -35 -295 -45 -38 -5 -108 -16 -155 -24 -47 -8 -132 -22 -190 -31 -58 -9
-145 -22 -195 -30 -109 -18 -199 -32 -325 -50 -52 -7 -117 -18 -145 -24 -27
-5 -81 -15 -120 -22 -86 -14 -260 -46 -425 -78 -263 -50 -587 -86 -608 -68
-11 9 -13 79 -10 376 3 361 4 367 26 403 13 20 34 44 48 53 45 29 135 55 193
55 31 1 85 5 121 10 36 5 101 13 145 19 44 6 130 17 190 26 61 9 153 22 205
30 52 8 129 19 170 25 72 11 186 27 355 50 83 11 214 30 345 50 41 7 120 18
175 25 117 16 159 22 500 75 39 6 115 17 170 25 103 14 170 24 335 50 209 32
242 37 530 75 47 6 126 17 175 25 50 7 128 19 175 25 263 37 397 58 488 76 40
8 92 14 115 15 23 0 74 6 112 14 39 7 113 12 165 12 l95 -2 3 -384z m399 204
c122 -60 203 -115 284 -195 96 -95 115 -138 139 -328 7 -53 6 -126 -5 -255 -8
-100 -15 -203 -15 -229 0 -26 -4 -50 -10 -53 -9 -6 -148 85 -261 171 -86 65
-193 186 -227 256 -45 89 -55 183 -48 413 8 231 12 265 34 265 9 0 58 -20 109
-45z m1557 -309 c18 -7 43 -30 56 -51 22 -36 23 -41 24 -383 1 -344 1 -347
-22 -383 -42 -69 -54 -72 -292 -85 -118 -7 -306 -18 -417 -24 -111 -7 -209
-10 -217 -7 -15 6 -16 52 -14 434 l3 428 125 17 c69 9 204 24 300 33 96 9 211
20 255 24 123 13 163 12 199 -3z m546 -223 c82 -60 158 -115 171 -123 12 -8
52 -37 88 -65 37 -27 83 -61 102 -75 18 -13 39 -28 44 -32 6 -5 55 -42 110
-83 55 -41 105 -79 112 -85 7 -5 27 -20 45 -33 307 -211 338 -251 374 -476 17
-109 17 -158 -6 -486 -6 -88 -15 -164 -20 -168 -16 -18 -305 153 -381 225 -8
7 -48 40 -89 73 -70 55 -157 127 -240 198 -46 39 -214 165 -269 202 -75 50
-199 178 -220 226 -16 38 -20 80 -26 315 -8 307 -1 418 26 463 10 17 21 31 25
31 3 0 72 -48 154 -107z m-2502 -887 c1 -368 -1 -573 -8 -581 -9 -11 -44 -18
-285 -60 -128 -22 -266 -44 -320 -50 -27 -3 -93 -12 -145 -20 -86 -12 -156
-22 -405 -56 -92 -12 -258 -33 -395 -48 -87 -10 -164 -20 -400 -51 -47 -7
-123 -16 -170 -21 -81 -8 -192 -23 -400 -54 -133 -19 -253 -36 -335 -45 -38
-5 -115 -16 -170 -24 -55 -8 -152 -22 -215 -31 -63 -8 -146 -20 -185 -26 -38
-5 -117 -16 -175 -24 -189 -25 -264 -35 -360 -50 -152 -23 -248 -36 -365 -50
-249 -31 -284 -36 -379 -52 -95 -15 -100 -15 -113 3 -19 25 -19 1026 0 1042 6
5 37 12 67 15 219 21 320 33 565 66 168 24 387 58 485 76 41 8 107 19 145 26
65 10 120 20 285 49 36 6 88 16 115 22 28 5 88 17 135 25 47 8 119 20 160 27
41 7 107 19 145 25 39 7 104 18 145 26 41 7 131 23 200 35 69 11 161 27 205
35 44 8 94 15 110 15 17 0 68 7 115 15 81 14 336 50 410 59 19 2 71 8 115 15
44 6 130 18 190 26 61 8 142 20 180 26 39 5 102 14 140 19 72 10 200 31 340
56 139 24 188 34 390 75 33 6 78 18 100 25 22 7 49 12 60 11 20 -2 20 -10 23
-571z m387 349 c33 -24 65 -48 70 -52 181 -144 258 -225 307 -323 l33 -65 3
-469 c1 -277 -1 -473 -7 -479 -10 -10 -14 -8 -181 102 -143 93 -276 222 -312
301 -25 54 -26 64 -38 415 -9 280 -9 383 0 460 11 96 32 155 55 155 5 0 37
-21 70 -45z m-5971 -141 c14 -6 16 -70 16 -630 0 -491 -3 -626 -12 -629 -12
-4 -57 -8 -348 -35 -127 -12 -337 -44 -565 -86 -44 -8 -105 -18 -135 -23 -30
-5 -82 -14 -115 -20 -190 -37 -226 -44 -285 -57 -86 -19 -97 -18 -104 9 -8 32
-7 1180 2 1193 8 13 80 33 227 64 55 11 120 25 145 32 25 6 65 14 90 18 25 4
63 12 85 18 219 59 626 126 860 142 55 4 105 7 112 8 6 1 18 -1 27 -4z m9611
-649 l0 -480 -110 0 -110 0 -3 470 c-1 259 0 476 3 483 3 9 32 12 112 10 l108
-3 0 -480z m-2074 360 c26 -17 48 -42 60 -70 18 -41 19 -68 17 -472 l-3 -428
-75 -13 c-41 -6 -115 -19 -165 -27 -49 -8 -115 -19 -145 -25 -261 -48 -419
-70 -497 -70 l-73 0 -2 393 c-4 559 -3 588 20 627 36 58 70 71 242 87 85 7
196 18 245 23 50 5 145 7 213 5 114 -3 126 -5 163 -30z m2478 -100 c40 -25 74
-45 76 -45 2 0 34 -21 72 -47 37 -26 84 -57 103 -70 69 -47 202 -166 251 -225
65 -79 91 -140 113 -267 14 -80 17 -133 13 -230 -10 -222 -27 -435 -36 -444
-8 -8 -174 73 -246 122 -176 119 -223 157 -327 262 -61 62 -95 107 -116 151
l-29 63 -7 290 c-4 169 -3 320 3 363 9 67 31 122 49 122 4 0 41 -20 81 -45z
m-1839 -206 c129 -100 296 -229 370 -288 145 -115 179 -140 341 -260 169 -126
205 -178 241 -351 17 -81 19 -122 15 -280 -5 -179 -25 -501 -33 -509 -14 -15
-239 125 -344 214 -143 120 -180 152 -245 210 -140 125 -226 196 -353 293
-178 136 -230 192 -264 278 -21 52 -36 671 -19 773 9 56 32 101 50 101 3 0
112 -82 241 -181z m-2590 -1061 c0 -446 -3 -569 -12 -572 -36 -10 -265 -43
-473 -66 -44 -6 -129 -17 -190 -25 -101 -14 -174 -24 -415 -56 -47 -6 -134
-17 -195 -24 -60 -7 -146 -18 -190 -24 -44 -7 -132 -18 -195 -27 -63 -8 -146
-20 -185 -26 -38 -5 -119 -16 -180 -23 -60 -7 -148 -18 -195 -24 -152 -20
-303 -41 -380 -51 -41 -6 -124 -17 -185 -25 -158 -19 -266 -34 -375 -50 -91
-13 -140 -20 -365 -50 -55 -7 -129 -18 -165 -23 -36 -6 -119 -18 -185 -27 -66
-9 -160 -23 -210 -31 -49 -7 -134 -18 -189 -24 -54 -6 -102 -13 -107 -15 -4
-3 -59 -10 -121 -15 -62 -5 -157 -15 -210 -21 -54 -7 -101 -9 -105 -5 -11 11
-15 1098 -5 1114 9 13 45 18 327 47 177 18 285 32 405 50 52 8 163 24 245 35
83 11 191 27 240 35 50 7 124 19 165 25 41 6 116 18 165 26 50 8 133 21 185
28 126 18 235 34 345 51 142 23 233 35 325 45 47 5 139 16 205 24 109 14 215
26 485 57 52 6 154 17 225 24 183 18 428 48 625 75 41 6 107 15 145 20 131 18
370 60 485 85 36 8 90 19 120 24 30 6 69 14 85 19 19 6 35 5 43 -1 9 -7 12
-135 12 -579z m388 365 c37 -25 90 -62 117 -81 135 -95 238 -207 275 -301 19
-49 20 -73 20 -526 0 -324 -3 -476 -11 -480 -14 -9 -160 76 -243 143 -137 110
-215 200 -254 297 -30 74 -34 109 -31 329 1 111 2 289 3 396 2 166 4 201 20
233 10 20 23 37 28 37 5 0 39 -21 76 -47z m3630 -111 c10 -7 12 -120 10 -533
l-3 -524 -110 0 -110 0 -3 524 c-2 413 0 526 10 533 7 4 54 8 103 8 50 0 96
-4 103 -8z m-9594 -141 c3 -4 6 -270 6 -590 1 -576 1 -582 -20 -619 -41 -73
-118 -95 -384 -112 -87 -6 -162 -13 -167 -15 -4 -3 -68 -12 -141 -20 -193 -20
-309 -33 -433 -50 -119 -16 -268 -33 -354 -42 -39 -4 -55 -2 -62 8 -10 17 -12
1189 -1 1205 10 15 169 49 472 99 52 8 120 20 150 26 66 12 217 35 360 54 58
7 129 18 159 24 29 6 81 11 115 12 33 0 97 6 141 13 99 16 152 19 159 7z
m7604 -604 c2 -481 0 -608 -10 -612 -7 -2 -56 -9 -108 -15 -150 -17 -425 -51
-602 -76 -59 -7 -136 -14 -172 -14 l-66 0 -2 448 c-4 635 -4 635 22 677 29 48
76 68 195 88 55 9 129 22 165 28 116 20 214 37 285 48 39 6 108 17 155 25 47
7 96 13 110 12 l25 -1 3 -608z m2365 546 c23 -15 50 -32 59 -38 9 -5 38 -23
65 -39 220 -134 432 -324 483 -433 54 -116 73 -347 50 -607 -5 -61 -13 -155
-16 -208 -4 -64 -10 -98 -17 -98 -17 0 -188 89 -282 145 -199 121 -351 259
-403 366 l-30 64 -7 345 c-7 358 -1 456 30 504 10 14 19 26 21 26 3 0 23 -12
47 -27z m-1989 -143 c81 -48 291 -208 416 -316 194 -168 300 -256 450 -372
184 -143 238 -222 271 -392 21 -108 26 -349 9 -503 -5 -51 -12 -145 -16 -209
-5 -101 -8 -118 -22 -118 -20 0 -189 85 -213 106 -8 8 -19 14 -22 14 -4 0 -30
16 -57 35 -28 19 -74 51 -102 72 -29 20 -55 39 -58 42 -17 20 -385 291 -481
355 -141 92 -228 173 -257 240 -19 41 -22 67 -22 170 0 66 -5 231 -12 366 -9
193 -9 269 1 360 12 111 33 180 53 180 6 0 34 -14 62 -30z m-2406 -1314 c2
-542 2 -549 -19 -591 -40 -80 -62 -85 -659 -146 -52 -5 -141 -16 -196 -24 -56
-8 -117 -15 -135 -15 -19 0 -81 -6 -139 -14 -104 -15 -194 -26 -425 -51 -288
-31 -335 -37 -425 -51 -53 -8 -116 -14 -142 -14 -25 0 -70 -5 -99 -11 -30 -5
-110 -16 -179 -24 -131 -14 -232 -26 -415 -50 -60 -8 -153 -19 -205 -25 -106
-12 -271 -33 -400 -49 -47 -6 -137 -18 -200 -26 -63 -8 -153 -19 -200 -25 -47
-7 -137 -17 -200 -25 -63 -7 -153 -18 -200 -24 -47 -6 -137 -18 -200 -26 -63
-8 -153 -19 -200 -26 -182 -24 -186 -24 -193 2 -9 34 -8 1112 1 1125 4 6 70
16 147 22 280 24 442 46 790 107 50 8 119 19 155 25 94 13 193 29 295 45 98
16 183 28 345 50 136 18 232 32 350 50 96 15 165 25 345 50 208 29 253 36 345
50 234 35 298 44 335 49 45 5 223 30 365 51 52 8 138 19 190 26 52 6 145 17
205 25 61 7 155 18 210 24 55 5 152 17 215 25 63 8 160 17 215 21 55 3 120 10
145 14 25 4 74 7 110 6 l65 -1 3 -549z m493 266 c159 -113 255 -219 290 -317
18 -51 19 -88 19 -537 0 -266 -4 -489 -9 -497 -10 -15 -2 -20 -192 105 -121
80 -233 177 -275 239 -48 70 -52 101 -65 490 -13 404 -6 542 32 604 l18 31 58
-36 c32 -19 88 -56 124 -82z m3534 -492 l0 -545 -110 0 -110 0 -3 535 c-1 294
0 541 3 548 3 9 32 12 112 10 l108 -3 0 -545z m332 363 c319 -139 582 -344
650 -506 22 -51 22 -61 23 -519 0 -287 -4 -469 -10 -473 -13 -8 -166 89 -271
172 -310 244 -390 316 -425 385 l-24 47 0 449 c0 247 3 452 7 455 8 9 7 9 50
-10z m-2329 -695 l2 -578 -22 -5 c-13 -2 -75 -6 -138 -8 -123 -4 -275 -19
-430 -42 -120 -18 -261 -36 -322 -42 l-48 -5 -2 429 c-4 596 -3 617 19 655 39
67 98 88 308 113 141 16 266 32 390 50 50 7 124 12 165 12 l75 -2 3 -577z
m-7596 -20 c0 -293 0 -560 -1 -593 -3 -71 -26 -114 -79 -147 -34 -21 -52 -23
-227 -29 -104 -3 -242 -11 -305 -18 -496 -49 -814 -74 -895 -69 l-60 3 -3 601
c-2 474 1 603 10 611 7 5 74 17 148 26 173 20 256 30 640 76 52 6 147 18 210
26 63 8 169 20 235 26 66 6 122 13 124 15 2 2 49 4 103 4 l98 0 2 -532z m8103
335 c61 -41 139 -95 176 -121 36 -26 104 -75 151 -109 48 -34 118 -86 157
-115 85 -64 134 -98 266 -184 120 -78 188 -142 221 -206 l24 -48 -2 -487 c-3
-427 -5 -488 -18 -486 -53 6 -211 82 -315 151 -61 40 -281 200 -310 225 -39
33 -260 194 -344 251 -125 84 -192 148 -220 209 -17 38 -21 65 -21 154 0 59
-5 216 -12 347 -13 276 -2 455 34 513 l19 32 42 -25 c23 -15 92 -60 152 -101z
m-2551 -699 c14 -5 16 -57 16 -477 l0 -470 -24 -41 c-40 -68 -61 -74 -361
-111 -172 -22 -263 -35 -350 -51 -44 -7 -99 -14 -121 -14 -23 0 -66 -5 -95
-11 -30 -5 -106 -16 -169 -24 -135 -16 -248 -31 -380 -50 -90 -13 -132 -19
-375 -50 -213 -27 -283 -36 -375 -50 -124 -18 -239 -33 -375 -50 -143 -18
-257 -33 -375 -50 -94 -14 -178 -25 -380 -50 -209 -26 -311 -40 -535 -75 -38
-6 -113 -17 -165 -25 -120 -18 -217 -33 -300 -46 -65 -11 -258 -34 -379 -46
-48 -4 -65 -3 -72 8 -5 8 -9 258 -9 555 0 421 3 544 13 551 15 13 171 35 537
78 123 15 226 27 410 50 203 26 292 36 415 50 66 8 161 19 210 25 50 6 142 17
205 25 63 8 174 21 245 30 72 9 168 20 215 25 142 15 269 30 385 45 110 14
223 28 385 46 47 5 130 15 185 23 55 8 150 22 210 30 226 31 403 57 485 72 47
8 98 14 114 14 16 0 70 6 120 14 112 18 447 46 576 49 52 2 96 4 97 5 1 1 8
-1 17 -4z m4034 -102 c10 -7 12 -127 10 -568 l-3 -559 -110 0 -110 0 -3 559
c-2 441 0 561 10 568 7 4 54 8 103 8 50 0 96 -4 103 -8z m-3641 -74 c32 -17
62 -36 68 -40 5 -5 44 -31 85 -58 100 -63 202 -166 237 -238 l28 -57 3 -419
c2 -260 -1 -423 -7 -429 -8 -8 -127 45 -247 112 -101 56 -223 173 -253 243
-16 37 -20 90 -29 348 -12 325 -5 465 24 533 10 20 21 37 25 37 4 0 34 -14 66
-32z m3971 -107 c9 -5 55 -28 101 -51 246 -121 490 -333 553 -480 54 -125 71
-353 48 -625 -5 -66 -13 -164 -16 -217 -5 -87 -8 -98 -24 -98 -11 0 -22 5 -25
10 -3 6 -12 10 -20 10 -7 0 -45 19 -85 43 -39 23 -79 47 -89 52 -16 9 -92 63
-284 198 -107 76 -164 132 -188 186 -18 41 -19 70 -19 506 0 254 3 465 7 468
9 9 20 9 41 -2z m-2320 -639 c2 -406 0 -457 -14 -489 -26 -53 -76 -81 -169
-92 -364 -44 -545 -61 -664 -61 l-111 0 2 497 3 498 120 16 c128 17 230 30
445 55 74 9 162 19 195 24 33 4 89 7 125 6 l65 -1 3 -453z m435 231 c62 -42
139 -96 172 -120 33 -23 83 -58 110 -77 28 -19 111 -78 185 -131 74 -53 213
-148 307 -212 178 -118 239 -174 274 -250 18 -39 19 -69 19 -487 0 -300 -3
-447 -11 -451 -11 -7 -44 6 -154 62 -109 56 -196 115 -383 262 -264 207 -373
291 -457 350 -111 78 -170 140 -200 206 -22 51 -25 71 -26 179 0 66 -4 195 -9
286 -12 247 11 460 52 460 5 0 59 -35 121 -77z m-8038 -608 l0 -630 -80 -12
c-224 -34 -1420 -77 -1465 -53 -20 11 -20 21 -20 609 0 467 3 601 13 608 6 6
71 13 142 16 72 3 182 11 245 16 195 18 347 31 550 47 107 9 238 19 290 23 52
5 147 8 210 7 l115 -1 0 -630z m5573 -652 l2 -643 -22 -5 c-13 -2 -77 -6 -143
-8 -119 -4 -232 -14 -455 -42 -248 -31 -379 -46 -480 -55 -58 -5 -150 -14
-205 -20 -55 -5 -170 -17 -255 -25 -85 -9 -220 -22 -300 -31 -80 -8 -167 -17
-195 -19 -27 -2 -120 -11 -205 -20 -85 -8 -222 -22 -305 -30 -82 -9 -195 -20
-250 -26 -55 -6 -167 -16 -250 -24 -214 -19 -461 -45 -710 -76 -165 -20 -350
-40 -680 -75 -195 -20 -371 -19 -379 2 -3 9 -6 251 -6 539 0 406 3 525 13 532
26 20 170 43 487 78 280 31 329 37 420 50 146 22 245 35 360 50 156 21 264 36
515 75 39 6 115 17 170 25 157 22 242 34 345 50 160 24 241 35 350 50 58 7
141 18 185 25 44 6 130 17 190 25 61 8 160 22 220 30 61 8 153 19 205 24 52 5
136 14 185 20 50 6 149 18 220 26 445 50 689 86 860 128 33 8 71 14 85 13 l25
-1 3 -642z m394 443 c191 -77 335 -191 388 -307 19 -42 20 -68 20 -587 0 -475
-2 -543 -15 -548 -23 -9 -259 113 -339 175 -85 65 -116 99 -151 162 -31 58
-31 64 -27 717 2 488 -12 443 124 388z m3636 -525 l-3 -526 -112 -3 -113 -3 0
530 0 530 103 3 c56 2 108 1 115 -1 10 -2 12 -113 10 -530z m395 350 c331
-172 527 -325 587 -460 19 -41 20 -67 20 -477 0 -238 -3 -435 -8 -438 -20 -12
-347 131 -385 169 -7 6 -31 22 -53 36 -117 69 -241 196 -272 279 -12 32 -26
692 -17 792 6 65 32 138 49 138 2 0 38 -18 79 -39z m-2475 -108 c32 -12 48
-26 63 -54 18 -36 19 -64 19 -593 0 -621 8 -566 -78 -566 -26 0 -119 -7 -207
-15 -88 -9 -230 -22 -315 -31 -85 -8 -201 -14 -257 -14 l-103 0 -2 458 c-4
675 -5 654 21 695 46 75 111 93 386 107 105 6 206 14 225 19 62 16 200 13 248
-6z m-7518 -1057 c0 -578 -2 -644 -16 -650 -9 -3 -356 -6 -773 -6 -575 0 -760
3 -769 12 -17 17 -17 1199 0 1216 8 8 51 12 128 12 63 1 174 5 245 10 72 5
234 14 360 20 127 6 266 15 310 19 44 5 178 9 298 10 l217 1 0 -644z"/>
<path d="M27370 19763 c-80 -7 -156 -17 -170 -23 -14 -5 -45 -14 -70 -19 -188
-38 -430 -180 -552 -326 -53 -63 -147 -232 -148 -267 -1 -7 -8 -31 -16 -53
-37 -102 -37 -383 1 -505 66 -214 164 -349 348 -477 76 -53 69 -49 152 -95 78
-44 262 -122 440 -187 33 -12 75 -29 93 -37 18 -8 37 -14 43 -14 6 0 25 -6 42
-14 18 -7 59 -23 92 -35 291 -109 434 -212 479 -345 20 -62 20 -87 -2 -156
-37 -117 -106 -183 -244 -232 -56 -20 -82 -23 -228 -23 -186 0 -230 11 -365
85 -129 72 -215 175 -240 289 -9 43 -40 110 -62 137 -10 12 -34 30 -53 40 -31
17 -59 19 -255 19 -206 -1 -222 -2 -254 -22 -59 -38 -74 -74 -73 -187 1 -136
23 -233 85 -376 17 -40 82 -147 97 -160 3 -3 21 -24 39 -48 67 -86 231 -199
373 -257 35 -14 72 -30 83 -35 79 -34 275 -77 413 -90 189 -18 450 -5 582 29
249 65 409 144 534 261 200 188 290 399 288 675 0 129 -13 203 -56 321 -51
140 -192 298 -376 420 -38 25 -235 125 -305 154 -101 43 -305 120 -318 120 -7
0 -17 4 -22 9 -6 5 -26 14 -45 19 -46 14 -120 40 -145 52 -11 5 -45 19 -75 31
-234 92 -373 214 -395 347 -25 149 81 289 266 350 51 17 89 22 174 22 191 0
334 -56 455 -179 69 -70 94 -113 130 -226 13 -38 32 -81 42 -96 54 -72 187
-98 416 -80 81 6 163 13 182 14 l35 2 3 120 c6 249 -54 453 -180 612 -113 143
-252 239 -503 347 -90 39 -250 75 -380 86 -193 17 -207 17 -355 3z"/>
<path d="M11221 19734 c-144 -24 -183 -67 -203 -221 -14 -110 1 -246 34 -306
45 -81 38 -80 473 -78 270 1 385 -1 390 -9 10 -17 5 -2014 -5 -2116 -14 -130
-12 -296 5 -399 8 -49 15 -93 15 -97 0 -16 56 -71 92 -89 46 -24 187 -49 273
-49 80 0 213 23 251 43 18 9 42 33 55 54 l24 38 3 1305 c2 1006 6 1306 15
1312 7 4 191 8 411 8 387 0 400 1 433 21 62 38 68 63 68 259 0 168 -1 177 -25
220 -18 33 -38 52 -75 70 l-50 25 -920 1 c-602 1 -951 6 -1010 13 -111 13
-148 13 -254 -5z"/>
<path d="M29286 19734 c-98 -18 -130 -35 -161 -84 -59 -94 -59 -356 0 -450 47
-74 43 -73 475 -74 l385 -1 0 -1025 c-1 -564 -5 -1110 -9 -1215 -7 -161 -6
-205 8 -289 10 -54 24 -109 32 -121 37 -56 198 -105 349 -105 81 0 213 23 252
44 19 9 42 34 53 56 20 39 20 57 20 1338 0 996 3 1301 12 1310 9 9 115 12 414
12 386 0 404 1 437 20 60 36 72 80 72 270 0 158 -1 167 -25 210 -19 33 -39 52
-75 70 l-50 25 -920 1 c-605 1 -951 5 -1010 13 -112 14 -159 13 -259 -5z"/>
<path d="M17030 19726 c-78 -14 -121 -36 -146 -73 -18 -27 -19 -73 -25 -1373
-4 -1043 -8 -1371 -19 -1463 -12 -106 -12 -127 4 -220 10 -56 26 -116 37 -132
49 -81 189 -106 484 -84 l190 14 0 1612 0 1612 -21 27 c-11 16 -39 38 -61 49
-76 41 -304 57 -443 31z"/>
<path d="M21150 19726 c-88 -14 -149 -43 -171 -83 -9 -15 -25 -68 -34 -117
-19 -93 -18 -175 4 -431 6 -62 10 -654 10 -1348 1 -1195 2 -1239 20 -1275 11
-22 36 -46 61 -61 l42 -23 1044 0 1044 0 40 23 c54 30 77 81 89 192 17 171
-17 323 -83 363 -29 18 -73 19 -791 24 l-760 5 -5 1310 -5 1310 -22 35 c-12
20 -38 43 -60 53 -82 36 -276 46 -423 23z"/>
<path d="M14322 19723 l-362 -3 2 -1663 3 -1662 328 -3 c180 -1 328 -1 329 0
2 2 5 309 8 683 l5 680 168 3 c159 2 170 1 221 -22 49 -22 136 -106 136 -130
0 -5 6 -17 13 -25 7 -9 26 -45 42 -81 37 -86 73 -168 90 -205 13 -27 30 -66
102 -225 13 -30 31 -68 38 -85 12 -27 53 -118 90 -200 8 -16 25 -59 40 -95 43
-108 88 -190 124 -227 80 -83 203 -103 507 -82 l209 14 -1 25 c-2 34 -34 153
-45 165 -5 5 -9 17 -9 27 0 9 -9 37 -19 60 -11 24 -32 70 -46 103 -15 33 -41
89 -59 125 -62 122 -208 405 -226 435 -21 35 -82 148 -120 220 -14 28 -34 81
-44 118 -17 64 -18 70 -1 112 19 50 80 109 162 156 102 59 217 181 279 299 37
68 67 154 88 246 22 99 22 379 0 478 -92 404 -290 600 -719 709 -197 51 -411
59 -1333 50z m1052 -622 c122 -44 234 -127 289 -213 95 -150 69 -327 -68 -463
-49 -50 -104 -81 -190 -109 -52 -16 -100 -19 -353 -23 -284 -4 -294 -4 -337
17 -25 12 -53 36 -65 54 -19 32 -20 49 -20 393 0 198 3 363 8 367 4 4 158 6
342 3 311 -4 339 -6 394 -26z"/>
<path d="M23824 19722 c-39 -6 -86 -38 -107 -72 l-22 -35 -3 -1590 c-1 -874 0
-1600 3 -1612 l5 -23 878 0 c578 0 923 -4 1011 -11 155 -14 304 0 356 31 66
40 95 115 95 240 0 154 -52 280 -134 323 l-41 21 -746 -3 c-438 -2 -749 1
-752 6 -3 5 -11 72 -17 149 -23 298 -24 318 -5 421 21 115 51 168 110 198 38
19 65 20 535 25 l495 5 0 280 0 280 -495 5 c-470 5 -497 6 -535 25 -63 32 -89
81 -109 207 -18 110 -16 191 12 468 l7 65 773 1 772 2 34 23 c48 33 74 93 87
204 13 111 0 234 -30 291 -11 20 -35 46 -53 57 -33 20 -48 20 -1069 21 -569 1
-1044 0 -1055 -2z"/>
<path d="M18132 18058 l3 -1663 325 0 325 0 5 580 c5 562 6 581 25 615 62 105
166 129 477 110 214 -14 324 -9 473 20 132 25 185 41 275 81 112 50 186 102
281 200 180 183 269 411 269 684 0 287 -108 561 -294 748 -146 148 -308 228
-546 272 -72 13 -203 15 -853 15 l-767 0 2 -1662z m1428 1048 c138 -52 231
-133 290 -251 33 -65 35 -77 38 -181 4 -107 3 -113 -29 -180 -36 -76 -112
-158 -176 -189 -21 -10 -46 -22 -55 -26 -10 -5 -59 -18 -110 -29 -77 -16 -138
-20 -353 -22 -252 -3 -261 -2 -295 19 -19 12 -44 37 -55 55 -19 31 -20 54 -23
416 -2 294 0 387 9 399 11 13 61 14 363 11 301 -4 357 -7 396 -22z"/>
</g>
</svg>
